<svg width="589" height="300" viewBox="0 0 589 300" fill="none" xmlns="http://www.w3.org/2000/svg">
<g clip-path="url(#clip0_1_2)">
<path d="M271.954 97.6191C273.506 100.783 274.282 104.305 274.282 108.185C274.282 112.065 273.506 115.587 271.954 118.751C270.402 121.855 268.402 124.332 265.955 126.182C261 130.003 255.866 131.913 250.554 131.913H239.361V142.031C239.361 143.404 239.302 144.449 239.182 145.165C239.122 145.821 238.854 146.597 238.376 147.493C237.541 149.105 235.213 149.91 231.392 149.91C227.214 149.91 224.766 148.806 224.05 146.597C223.692 145.583 223.513 144.031 223.513 141.941V92.2467C223.513 90.8737 223.543 89.859 223.602 89.2023C223.722 88.486 224.02 87.6802 224.498 86.7848C225.333 85.173 227.661 84.3672 231.482 84.3672H250.643C255.896 84.3672 261 86.2774 265.955 90.0977C268.402 91.9482 270.402 94.4554 271.954 97.6191ZM250.643 116.064C252.434 116.064 254.195 115.408 255.926 114.094C257.657 112.781 258.523 110.811 258.523 108.185C258.523 105.558 257.657 103.588 255.926 102.275C254.195 100.902 252.404 100.216 250.554 100.216H239.361V116.064H250.643ZM301.04 149.821C295.011 149.821 289.996 147.553 285.997 143.016C282.057 138.419 280.087 132.838 280.087 126.272V110.602C280.087 109.17 280.117 108.125 280.177 107.468C280.296 106.812 280.565 106.036 280.983 105.14C281.818 103.529 284.146 102.723 287.967 102.723C292.145 102.723 294.593 103.857 295.309 106.125C295.667 107.08 295.846 108.603 295.846 110.692V126.361C295.846 128.809 296.533 130.719 297.906 132.092C299.338 133.465 301.219 134.151 303.547 134.151C305.934 134.151 307.845 133.435 309.277 132.002C310.77 130.57 311.516 128.689 311.516 126.361V110.513C311.516 109.14 311.546 108.125 311.605 107.468C311.725 106.752 312.023 105.946 312.501 105.051C313.277 103.499 315.575 102.723 319.395 102.723C323.156 102.723 325.454 103.529 326.29 105.14C326.708 106.036 326.947 106.842 327.006 107.558C327.126 108.215 327.185 109.229 327.185 110.602V142.3C327.185 143.613 327.126 144.628 327.006 145.344C326.947 146.001 326.678 146.747 326.2 147.582C325.305 149.134 323.007 149.91 319.306 149.91C315.665 149.91 313.426 149.194 312.59 147.761C311.993 146.747 311.695 145.523 311.695 144.09C311.456 144.508 310.919 145.105 310.083 145.881C309.247 146.657 308.442 147.314 307.666 147.851C305.636 149.164 303.427 149.821 301.04 149.821ZM360.624 102.812C366.593 102.812 371.547 105.111 375.487 109.707C379.487 114.244 381.486 119.795 381.486 126.361V142.12C381.486 143.493 381.427 144.538 381.307 145.254C381.248 145.911 381.009 146.657 380.591 147.493C379.755 149.105 377.427 149.91 373.607 149.91C369.369 149.91 366.921 148.806 366.265 146.597C365.906 145.583 365.727 144.061 365.727 142.031V126.272C365.727 123.824 365.011 121.914 363.578 120.541C362.205 119.168 360.325 118.482 357.937 118.482C355.609 118.482 353.699 119.198 352.207 120.631C350.774 122.064 350.058 123.944 350.058 126.272V142.12C350.058 143.493 349.998 144.538 349.879 145.254C349.819 145.911 349.551 146.657 349.073 147.493C348.297 149.105 345.999 149.91 342.178 149.91C338.418 149.91 336.12 149.105 335.284 147.493C334.866 146.597 334.597 145.821 334.478 145.165C334.418 144.449 334.388 143.404 334.388 142.031V110.334C334.388 109.021 334.418 108.036 334.478 107.379C334.597 106.663 334.896 105.887 335.373 105.051C336.209 103.559 338.507 102.812 342.268 102.812C345.909 102.812 348.148 103.499 348.983 104.872C349.58 105.887 349.879 107.11 349.879 108.543C350.118 108.125 350.655 107.528 351.491 106.752C352.326 105.976 353.132 105.349 353.908 104.872C355.938 103.499 358.176 102.812 360.624 102.812ZM415.214 118.661L409.394 118.303V130.659C409.394 132.271 409.633 133.435 410.111 134.151C410.648 134.868 411.603 135.226 412.976 135.226C414.408 135.226 415.483 135.286 416.199 135.405C416.975 135.465 417.781 135.733 418.617 136.211C419.99 136.987 420.676 138.987 420.676 142.21C420.676 145.971 419.841 148.269 418.169 149.105C417.274 149.522 416.468 149.791 415.752 149.91C415.095 149.97 414.11 150 412.797 150C406.589 150 401.873 148.597 398.649 145.792C395.426 142.986 393.814 138.24 393.814 131.555V118.303C392.68 118.482 391.456 118.571 390.143 118.571C388.83 118.571 387.726 118.064 386.83 117.049C385.994 116.034 385.577 114.303 385.577 111.856C385.577 109.409 385.726 107.648 386.024 106.573C386.323 105.439 386.741 104.633 387.278 104.156C388.233 103.38 389.427 102.991 390.859 102.991L393.814 103.35V94.127C393.814 92.7541 393.844 91.7393 393.904 91.0827C394.023 90.426 394.322 89.7097 394.799 88.9337C395.575 87.4414 397.873 86.6952 401.694 86.6952C405.753 86.6952 408.171 87.7995 408.947 90.0082C409.245 90.9633 409.394 92.4855 409.394 94.5747V103.35C412.021 103.111 413.991 102.991 415.304 102.991C416.677 102.991 417.692 103.051 418.348 103.171C419.065 103.23 419.87 103.499 420.766 103.976C422.318 104.752 423.094 107.051 423.094 110.871C423.094 114.632 422.288 116.93 420.676 117.766C419.781 118.183 418.975 118.452 418.259 118.571C417.602 118.631 416.587 118.661 415.214 118.661ZM426.695 126.451C426.695 119.288 429.202 113.378 434.216 108.722C439.231 104.066 444.961 101.738 451.408 101.738C457.855 101.738 463.556 104.066 468.51 108.722C473.465 113.318 475.942 119.198 475.942 126.361C475.942 131.316 474.659 135.733 472.092 139.613C469.525 143.434 466.391 146.269 462.69 148.12C459.049 149.91 455.258 150.806 451.319 150.806C447.379 150.806 443.558 149.851 439.857 147.941C436.156 145.971 433.023 143.105 430.456 139.345C427.949 135.524 426.695 131.226 426.695 126.451ZM445.409 132.898C447.319 134.33 449.259 135.047 451.229 135.047C453.199 135.047 455.169 134.301 457.139 132.808C459.109 131.316 460.093 129.107 460.093 126.182C460.093 123.257 459.168 121.079 457.318 119.646C455.467 118.213 453.468 117.497 451.319 117.497C449.17 117.497 447.17 118.243 445.319 119.735C443.469 121.228 442.544 123.436 442.544 126.361C442.544 129.227 443.499 131.406 445.409 132.898ZM482.085 145.792C480.951 145.075 480.384 143.941 480.384 142.389C480.384 140.837 481.518 138.479 483.787 135.315C484.443 134.301 485.488 133.793 486.92 133.793C488.413 133.793 490.413 134.539 492.92 136.032C495.427 137.464 497.695 138.181 499.725 138.181C503.366 138.181 505.187 137.464 505.187 136.032C505.187 134.898 503.187 134.062 499.187 133.525C495.427 132.987 491.696 131.585 487.995 129.316C486.264 128.242 484.831 126.57 483.697 124.302C482.563 121.974 481.996 119.228 481.996 116.064C481.996 106.633 488.473 101.917 501.426 101.917C505.664 101.917 510.022 102.932 514.499 104.961C516.588 105.916 517.633 107.11 517.633 108.543C517.633 109.976 516.976 111.737 515.663 113.826C514.35 115.915 513.006 116.96 511.634 116.96C510.917 116.96 509.574 116.512 507.604 115.617C505.694 114.721 503.605 114.274 501.336 114.274C497.815 114.274 496.054 114.93 496.054 116.243C496.054 118.034 498.083 119.198 502.142 119.735C506.082 120.153 509.902 121.288 513.603 123.138C515.335 123.974 516.767 125.436 517.901 127.525C519.095 129.555 519.692 132.122 519.692 135.226C519.692 138.33 519.095 140.986 517.901 143.195C516.767 145.344 515.155 146.956 513.066 148.03C509.246 149.881 504.44 150.806 498.65 150.806C492.92 150.806 487.398 149.134 482.085 145.792Z" fill="#00E1C8"/>
<path d="M249.4 208.757C247.929 206.947 247.194 205.336 247.194 203.922C247.194 202.451 248.41 200.529 250.842 198.153C252.256 196.796 253.754 196.117 255.338 196.117C256.921 196.117 259.127 197.531 261.955 200.359C262.746 201.32 263.877 202.254 265.348 203.158C266.818 204.007 268.175 204.431 269.42 204.431C274.679 204.431 277.309 202.282 277.309 197.984C277.309 196.683 276.574 195.608 275.103 194.76C273.689 193.855 271.908 193.205 269.759 192.809C267.61 192.413 265.291 191.791 262.803 190.943C260.315 190.038 257.996 188.992 255.847 187.804C253.698 186.617 251.888 184.75 250.418 182.205C249.004 179.604 248.297 176.493 248.297 172.874C248.297 167.897 250.135 163.571 253.811 159.895C257.543 156.163 262.605 154.296 268.995 154.296C272.389 154.296 275.471 154.749 278.242 155.654C281.07 156.502 283.021 157.378 284.095 158.283L286.216 159.895C287.969 161.535 288.846 162.921 288.846 164.052C288.846 165.183 288.167 166.738 286.81 168.717C284.887 171.545 282.908 172.959 280.872 172.959C279.684 172.959 278.214 172.393 276.46 171.262C276.291 171.149 275.952 170.866 275.443 170.414C274.99 169.962 274.566 169.594 274.17 169.311C272.982 168.576 271.456 168.208 269.589 168.208C267.78 168.208 266.253 168.661 265.008 169.566C263.821 170.414 263.227 171.63 263.227 173.213C263.227 174.74 263.934 175.984 265.348 176.946C266.818 177.907 268.628 178.558 270.777 178.897C272.926 179.236 275.273 179.774 277.818 180.509C280.363 181.187 282.71 182.036 284.859 183.054C287.008 184.072 288.789 185.853 290.203 188.398C291.673 190.886 292.409 193.968 292.409 197.644C292.409 201.32 291.673 204.572 290.203 207.4C288.733 210.171 286.81 212.32 284.435 213.847C279.854 216.844 274.962 218.343 269.759 218.343C267.101 218.343 264.584 218.032 262.209 217.41C259.834 216.731 257.911 215.911 256.441 214.95C253.443 213.14 251.351 211.387 250.163 209.69L249.4 208.757ZM312.514 178.727C315.172 174.712 318.367 172.704 322.1 172.704C327.868 172.704 332.166 175.164 334.994 180.085C335.616 179.236 336.351 178.36 337.199 177.455C338.104 176.493 339.518 175.475 341.441 174.401C343.364 173.27 345.343 172.704 347.379 172.704C351.903 172.704 355.692 174.458 358.746 177.964C361.8 181.414 363.327 187.154 363.327 195.184V210.03C363.327 211.33 363.271 212.32 363.157 212.999C363.101 213.621 362.846 214.356 362.394 215.204C361.659 216.731 359.481 217.495 355.862 217.495C352.299 217.495 350.122 216.703 349.33 215.119C348.934 214.271 348.68 213.536 348.567 212.914C348.51 212.235 348.482 211.245 348.482 209.945V195.1C348.482 190.179 346.729 187.719 343.222 187.719C341.243 187.719 339.886 188.37 339.151 189.67C338.472 190.971 338.133 192.809 338.133 195.184V210.03C338.133 211.387 338.076 212.377 337.963 212.999C337.906 213.621 337.652 214.356 337.199 215.204C336.408 216.731 334.202 217.495 330.583 217.495C327.02 217.495 324.843 216.703 324.051 215.119C323.655 214.271 323.4 213.536 323.287 212.914C323.231 212.235 323.202 211.245 323.202 209.945V195.1C323.202 190.179 321.449 187.719 317.943 187.719C314.55 187.719 312.853 190.179 312.853 195.1V210.114C312.853 211.415 312.797 212.405 312.684 213.083C312.627 213.706 312.373 214.441 311.92 215.289C311.072 216.759 308.866 217.495 305.303 217.495C301.74 217.495 299.563 216.731 298.771 215.204C298.376 214.356 298.121 213.621 298.008 212.999C297.951 212.377 297.923 211.387 297.923 210.03V180.169C297.923 178.869 297.951 177.907 298.008 177.285C298.121 176.607 298.404 175.871 298.856 175.08C299.705 173.553 301.712 172.789 304.879 172.789C308.046 172.789 310.11 173.298 311.072 174.316C312.033 175.334 312.514 176.805 312.514 178.727ZM399.09 177.54C399.43 174.373 401.663 172.789 405.792 172.789C407.997 172.789 409.637 172.959 410.712 173.298C411.786 173.638 412.522 174.231 412.918 175.08C413.37 175.928 413.624 176.691 413.681 177.37C413.794 177.992 413.851 178.954 413.851 180.254V209.945C413.851 211.245 413.794 212.235 413.681 212.914C413.624 213.536 413.398 214.271 413.002 215.119C412.211 216.59 410.259 217.325 407.149 217.325C404.095 217.325 402.031 216.957 400.956 216.222C399.939 215.43 399.345 214.299 399.175 212.829C397.083 215.826 393.576 217.325 388.656 217.325C383.793 217.325 379.268 215.091 375.083 210.623C370.898 206.156 368.806 200.981 368.806 195.1C368.806 189.161 370.898 183.987 375.083 179.576C379.325 175.108 383.962 172.874 388.995 172.874C390.918 172.874 392.671 173.213 394.255 173.892C395.838 174.571 396.941 175.221 397.563 175.843C398.185 176.409 398.694 176.974 399.09 177.54ZM383.651 195.184C383.651 197.051 384.386 198.747 385.857 200.274C387.327 201.745 389.109 202.48 391.201 202.48C393.293 202.48 395.018 201.716 396.376 200.189C397.789 198.662 398.496 196.994 398.496 195.184C398.496 193.318 397.818 191.593 396.46 190.01C395.16 188.426 393.378 187.634 391.116 187.634C388.911 187.634 387.101 188.426 385.687 190.01C384.33 191.593 383.651 193.318 383.651 195.184ZM450.981 173.298C452.056 173.638 452.932 174.231 453.611 175.08C454.346 175.871 454.714 177.172 454.714 178.982C454.714 180.792 454.176 182.771 453.102 184.92C452.027 187.069 450.472 188.143 448.436 188.143C447.418 188.143 446.428 187.917 445.467 187.465C444.562 187.012 443.346 186.786 441.819 186.786C440.292 186.786 438.85 187.323 437.493 188.398C436.192 189.472 435.542 190.773 435.542 192.3V210.114C435.542 211.415 435.485 212.405 435.372 213.083C435.316 213.706 435.061 214.441 434.609 215.289C433.761 216.759 431.555 217.495 427.992 217.495C425.278 217.495 423.326 217.014 422.139 216.053C421.234 215.261 420.725 214.045 420.612 212.405C420.612 211.839 420.612 211.019 420.612 209.945V180.169C420.612 178.869 420.64 177.907 420.697 177.285C420.81 176.607 421.064 175.871 421.46 175.08C422.252 173.553 424.457 172.789 428.077 172.789C431.47 172.789 433.591 173.44 434.439 174.74C435.061 175.645 435.372 176.578 435.372 177.54C435.655 177.144 436.051 176.663 436.56 176.098C437.125 175.532 438.285 174.769 440.038 173.807C441.791 172.846 443.318 172.365 444.619 172.365C445.976 172.365 447.107 172.45 448.012 172.62C448.917 172.733 449.906 172.959 450.981 173.298ZM485.34 187.804L479.826 187.465V199.171C479.826 200.698 480.052 201.801 480.504 202.48C481.013 203.158 481.918 203.498 483.219 203.498C484.576 203.498 485.594 203.554 486.273 203.667C487.008 203.724 487.772 203.978 488.563 204.431C489.864 205.166 490.514 207.061 490.514 210.114C490.514 213.677 489.723 215.855 488.139 216.646C487.291 217.042 486.527 217.297 485.849 217.41C485.227 217.466 484.294 217.495 483.049 217.495C477.168 217.495 472.7 216.166 469.646 213.508C466.592 210.85 465.065 206.354 465.065 200.02V187.465C463.991 187.634 462.832 187.719 461.587 187.719C460.343 187.719 459.297 187.239 458.449 186.277C457.657 185.316 457.261 183.676 457.261 181.357C457.261 179.038 457.402 177.37 457.685 176.352C457.968 175.278 458.364 174.514 458.873 174.062C459.778 173.326 460.909 172.959 462.266 172.959L465.065 173.298V164.561C465.065 163.26 465.094 162.299 465.15 161.676C465.263 161.054 465.546 160.376 465.999 159.641C466.734 158.227 468.911 157.52 472.53 157.52C476.376 157.52 478.667 158.566 479.402 160.659C479.684 161.563 479.826 163.005 479.826 164.985V173.298C482.314 173.072 484.18 172.959 485.425 172.959C486.725 172.959 487.687 173.015 488.309 173.129C488.987 173.185 489.751 173.44 490.599 173.892C492.07 174.627 492.805 176.805 492.805 180.424C492.805 183.987 492.041 186.164 490.514 186.956C489.666 187.352 488.903 187.606 488.224 187.719C487.602 187.776 486.641 187.804 485.34 187.804Z" fill="#00E1C8"/>
<path d="M123.297 186.057C110.957 182.652 97.837 187.286 93.4221 196.478C89.0072 205.669 95.1927 215.458 107.533 218.862C119.873 222.267 132.922 217.793 137.337 208.601C141.752 199.409 135.637 189.467 123.297 186.062V186.057Z" fill="#00E1C8"/>
<path d="M170.433 83.3416C148.928 77.407 130.949 82.7623 123 99.3012C118.851 107.925 114.818 122.289 115.021 154.652L115.075 170.316C115.091 173.803 117.969 176.918 122.298 178.106C128.539 179.826 135.348 176.995 136.776 172.083L138.679 165.528C141.471 155.911 149.935 147.647 161.845 143.71C180.465 137.551 189.981 125.422 193.218 118.683C201.166 102.144 191.627 89.1935 170.433 83.3416ZM162.485 114.575C154.529 114.575 148.086 109.687 148.086 103.664C148.086 97.6402 154.537 92.7519 162.485 92.7519C170.433 92.7519 176.884 97.6402 176.884 103.664C176.884 109.687 170.433 114.575 162.485 114.575Z" fill="#00E1C8"/>
</g>
<defs>
<clipPath id="clip0_1_2">
<rect width="589" height="300" fill="white"/>
</clipPath>
</defs>
</svg>
