<svg xmlns="http://www.w3.org/2000/svg" xmlns:xlink="http://www.w3.org/1999/xlink" width="1000" zoomAndPan="magnify" viewBox="0 0 750 749.999995" height="1000" preserveAspectRatio="xMidYMid meet" version="1.0"><defs><clipPath id="80915aec4e"><path d="M 0 27 L 750 27 L 750 723.46875 L 0 723.46875 Z M 0 27 " clip-rule="nonzero"/></clipPath></defs><g clip-path="url(#80915aec4e)"><path fill="#ffffff" d="M 702.691406 516.558594 C 697.167969 516.558594 692.6875 512.082031 692.6875 506.605469 C 692.6875 501.082031 697.167969 496.601562 702.691406 496.601562 L 739.492188 496.601562 C 745.019531 496.601562 749.496094 501.082031 749.496094 506.605469 C 749.496094 512.082031 745.019531 516.558594 739.492188 516.558594 Z M 683.300781 426.832031 C 679.242188 430.558594 672.914062 430.277344 669.1875 426.265625 C 665.460938 422.203125 665.742188 415.878906 669.804688 412.148438 L 692.40625 391.292969 C 696.46875 387.566406 702.792969 387.847656 706.519531 391.859375 C 710.25 395.921875 709.964844 402.246094 705.90625 405.976562 Z M 669.804688 601.011719 C 665.742188 597.285156 665.460938 590.960938 669.1875 586.949219 C 672.914062 582.886719 679.242188 582.605469 683.300781 586.332031 L 705.90625 607.1875 C 709.964844 610.914062 710.25 617.242188 706.519531 621.300781 C 702.792969 625.363281 696.46875 625.597656 692.40625 621.867188 Z M 612.046875 464.5625 C 604.074219 456.074219 593.738281 449.933594 582.136719 447.203125 L 582.136719 565.960938 C 627.144531 555.492188 644.039062 498.683594 612.046875 464.5625 Z M 333.820312 406.492188 L 333.820312 256.308594 C 300.285156 256.308594 266.730469 256.308594 233.191406 256.308594 L 233.191406 496.652344 L 255.511719 496.652344 L 255.511719 465.695312 C 255.511719 433.089844 282.125 406.492188 314.714844 406.492188 Z M 356.941406 599.878906 L 317.492188 599.878906 L 317.492188 703.542969 C 317.492188 714.34375 326.367188 723.265625 337.21875 723.265625 L 356.941406 723.265625 Z M 392.578125 426.449219 C 366.628906 426.449219 340.679688 426.449219 314.730469 426.449219 C 293.175781 426.449219 275.484375 444.140625 275.484375 465.695312 L 275.484375 540.660156 C 275.484375 562.214844 293.175781 579.90625 314.730469 579.90625 L 392.578125 579.90625 Z M 562.179688 328.828125 L 412.53125 422.003906 L 412.53125 584.402344 L 562.179688 677.542969 Z M 557.789062 98.304688 C 560.515625 93.546875 566.609375 91.929688 571.367188 94.675781 C 576.128906 97.40625 577.792969 103.449219 575.046875 108.226562 L 517.207031 208.390625 C 514.480469 213.152344 508.386719 214.800781 503.625 212.070312 C 498.867188 209.339844 497.253906 203.246094 500 198.488281 Z M 491.359375 94.011719 C 517.410156 94.011719 530.574219 125.667969 512.117188 144.109375 C 493.65625 162.550781 462.015625 149.4375 462.015625 123.355469 C 462.015625 107.175781 475.132812 94.011719 491.359375 94.011719 Z M 497.96875 116.746094 C 492.125 110.855469 481.972656 115.050781 481.972656 123.355469 C 481.972656 131.710938 492.109375 135.90625 497.96875 130.011719 C 501.644531 126.335938 501.644531 120.394531 497.96875 116.746094 Z M 583.703125 150.152344 C 609.75 150.152344 622.867188 181.808594 604.40625 200.25 C 585.949219 218.695312 554.308594 205.527344 554.308594 179.496094 C 554.308594 163.316406 567.472656 150.152344 583.703125 150.152344 Z M 590.308594 172.90625 C 584.417969 167.011719 574.316406 171.207031 574.316406 179.511719 C 574.316406 187.867188 584.417969 192.0625 590.308594 186.171875 C 593.988281 182.476562 593.988281 176.535156 590.308594 172.90625 Z M 560.25 45.558594 L 542.941406 29.566406 C 539.929688 26.785156 535.101562 26.785156 532.089844 29.566406 L 514.777344 45.558594 C 508.605469 51.269531 500.863281 53.816406 492.558594 52.832031 L 469.15625 50.054688 C 465.011719 49.589844 461.234375 52.269531 460.433594 56.378906 L 455.808594 79.496094 C 454.210938 87.753906 449.382812 94.359375 442.027344 98.472656 L 421.453125 109.988281 C 417.824219 112.019531 416.410156 116.496094 418.160156 120.277344 L 428.011719 141.699219 C 431.558594 149.335938 431.558594 157.410156 428.011719 165.050781 L 418.160156 186.519531 C 416.410156 190.296875 417.824219 194.777344 421.453125 196.757812 L 442.027344 208.308594 C 449.382812 212.417969 454.195312 218.976562 455.808594 227.230469 L 460.433594 250.402344 C 461.234375 254.460938 465.011719 257.191406 469.15625 256.675781 L 492.558594 253.894531 C 500.863281 252.898438 508.605469 255.460938 514.777344 261.167969 L 532.089844 277.214844 C 535.101562 279.996094 539.929688 279.996094 542.941406 277.214844 L 560.25 261.167969 C 566.425781 255.460938 574.164062 252.914062 582.472656 253.894531 L 605.921875 256.675781 C 610.035156 257.191406 613.796875 254.460938 614.644531 250.402344 L 619.222656 227.230469 C 620.867188 218.976562 625.644531 212.417969 633.003906 208.308594 L 653.625 196.757812 C 657.203125 194.777344 658.667969 190.296875 656.921875 186.519531 L 647.015625 165.050781 C 643.472656 157.410156 643.472656 149.335938 647.015625 141.699219 L 656.921875 120.277344 C 658.667969 116.496094 657.203125 112.019531 653.625 109.988281 L 633.003906 98.472656 C 625.644531 94.359375 620.867188 87.769531 619.222656 79.496094 L 614.644531 56.378906 C 613.796875 52.269531 610.015625 49.589844 605.921875 50.054688 L 582.472656 52.832031 C 574.164062 53.816406 566.425781 51.269531 560.25 45.558594 Z M 213.183594 256.308594 L 145.808594 256.308594 L 145.808594 496.652344 L 213.183594 496.652344 Z M 125.851562 256.308594 L 25.222656 256.308594 L 25.222656 496.652344 L 125.851562 496.652344 Z M 15.21875 236.304688 L 104.714844 236.304688 L 104.714844 166.8125 L 0.503906 166.8125 L 0.503906 236.304688 Z M 124.671875 236.304688 L 234.371094 236.304688 L 234.371094 166.8125 L 124.671875 166.8125 Z M 254.328125 236.304688 L 358.554688 236.304688 L 358.554688 166.8125 L 254.328125 166.8125 Z M 51.683594 146.855469 C 75.21875 146.855469 98.773438 146.855469 122.308594 146.855469 L 122.308594 113.785156 L 73.054688 90.484375 C 63.234375 85.804688 51.683594 92.695312 51.683594 104.03125 Z M 236.734375 113.785156 L 236.734375 146.855469 L 307.359375 146.855469 L 307.359375 104.015625 C 307.359375 92.695312 295.804688 85.804688 285.988281 90.464844 Z M 142.28125 146.855469 L 216.78125 146.855469 L 216.78125 117.464844 L 142.28125 117.464844 Z M 142.28125 146.855469 " fill-opacity="1" fill-rule="nonzero"/></g></svg>