<svg xmlns="http://www.w3.org/2000/svg" xmlns:xlink="http://www.w3.org/1999/xlink" width="1000" zoomAndPan="magnify" viewBox="0 0 750 749.999995" height="1000" preserveAspectRatio="xMidYMid meet" version="1.0"><defs><clipPath id="61fedb477d"><path d="M 0 3.75 L 750 3.75 L 750 746.25 L 0 746.25 Z M 0 3.75 " clip-rule="nonzero"/></clipPath></defs><g clip-path="url(#61fedb477d)"><path fill="#ffffff" d="M 454.632812 293.710938 C 539.289062 293.710938 607.914062 362.335938 607.914062 446.992188 C 607.914062 531.644531 539.289062 600.273438 454.632812 600.273438 C 369.980469 600.273438 301.355469 531.644531 301.355469 446.992188 C 301.355469 362.335938 369.980469 293.710938 454.632812 293.710938 Z M 571.378906 580.136719 L 601.21875 609.386719 L 599.613281 611.039062 C 594.273438 616.539062 594.40625 625.40625 599.910156 630.742188 L 684.082031 712.421875 C 689.582031 717.757812 698.449219 717.628906 703.789062 712.128906 L 734.175781 680.808594 C 739.515625 675.308594 739.378906 666.441406 733.882812 661.105469 L 649.707031 579.425781 C 644.207031 574.085938 635.339844 574.21875 630.003906 579.71875 L 628.144531 581.632812 L 597.511719 551.609375 C 589.855469 562.046875 581.085938 571.613281 571.378906 580.136719 Z M 143.761719 8.457031 C 63.351562 14.539062 0 81.707031 0 163.675781 C 0 249.648438 69.695312 319.347656 155.667969 319.347656 C 179.816406 319.347656 202.679688 313.851562 223.074219 304.035156 L 145.800781 170.34375 C 144.515625 168.441406 143.761719 166.148438 143.761719 163.679688 Z M 504.195312 617.039062 L 504.195312 731.222656 C 504.195312 739.417969 497.507812 746.105469 489.3125 746.105469 C 472.835938 746.105469 456.355469 746.105469 439.878906 746.105469 C 431.683594 746.105469 425 739.417969 425 731.222656 L 425 621.597656 C 434.636719 623.222656 444.535156 624.082031 454.636719 624.082031 C 471.835938 624.082031 488.464844 621.617188 504.195312 617.039062 Z M 507.792969 77.546875 C 501.21875 77.546875 495.886719 72.21875 495.886719 65.644531 C 495.886719 59.070312 501.21875 53.738281 507.792969 53.738281 L 622.945312 53.738281 C 629.519531 53.738281 634.851562 59.070312 634.851562 65.644531 C 634.851562 72.21875 629.519531 77.546875 622.945312 77.546875 Z M 401.808594 249.804688 L 441.957031 249.804688 C 451.183594 249.804688 458.710938 257.328125 458.710938 266.554688 L 458.710938 269.953125 C 457.355469 269.925781 455.996094 269.902344 454.632812 269.902344 C 429.933594 269.902344 406.417969 274.964844 385.058594 284.101562 L 385.058594 266.554688 C 385.058594 257.328125 392.582031 249.804688 401.808594 249.804688 Z M 552.882812 299.648438 C 563.242188 306.570312 572.832031 314.5625 581.496094 323.457031 L 622.945312 323.457031 C 629.519531 323.457031 634.851562 318.125 634.851562 311.550781 C 634.851562 304.976562 629.519531 299.648438 622.945312 299.648438 Z M 507.792969 273.613281 C 501.21875 273.613281 495.886719 268.28125 495.886719 261.707031 C 495.886719 255.132812 501.21875 249.804688 507.792969 249.804688 L 738.097656 249.804688 C 744.671875 249.804688 750 255.132812 750 261.707031 C 750 268.28125 744.671875 273.613281 738.097656 273.613281 Z M 401.808594 126.851562 L 441.957031 126.851562 C 451.183594 126.851562 458.710938 134.375 458.710938 143.601562 L 458.710938 183.75 C 458.710938 192.976562 451.183594 200.5 441.957031 200.5 L 401.808594 200.5 C 392.582031 200.5 385.058594 192.976562 385.058594 183.75 L 385.058594 143.601562 C 385.058594 134.375 392.582031 126.851562 401.808594 126.851562 Z M 507.792969 200.503906 C 501.21875 200.503906 495.886719 195.171875 495.886719 188.597656 C 495.886719 182.023438 501.21875 176.695312 507.792969 176.695312 L 622.945312 176.695312 C 629.519531 176.695312 634.851562 182.023438 634.851562 188.597656 C 634.851562 195.171875 629.519531 200.503906 622.945312 200.503906 Z M 507.792969 150.660156 C 501.21875 150.660156 495.886719 145.328125 495.886719 138.753906 C 495.886719 132.179688 501.21875 126.851562 507.792969 126.851562 L 738.097656 126.851562 C 744.671875 126.851562 750 132.179688 750 138.753906 C 750 145.328125 744.671875 150.660156 738.097656 150.660156 Z M 401.808594 3.894531 L 441.957031 3.894531 C 451.183594 3.894531 458.710938 11.421875 458.710938 20.648438 L 458.710938 60.796875 C 458.710938 70.023438 451.183594 77.546875 441.957031 77.546875 L 401.808594 77.546875 C 392.582031 77.546875 385.058594 70.023438 385.058594 60.796875 L 385.058594 20.648438 C 385.058594 11.421875 392.582031 3.894531 401.808594 3.894531 Z M 507.792969 27.707031 C 501.21875 27.707031 495.886719 22.375 495.886719 15.800781 C 495.886719 9.226562 501.21875 3.894531 507.792969 3.894531 L 738.097656 3.894531 C 744.671875 3.894531 750 9.226562 750 15.800781 C 750 22.375 744.671875 27.707031 738.097656 27.707031 Z M 360.464844 596.976562 C 329.75 577.648438 305.386719 549.148438 291.21875 515.324219 C 285.433594 517.367188 281.269531 522.894531 281.269531 529.363281 C 281.269531 596.648438 281.269531 663.9375 281.269531 731.222656 C 281.269531 739.417969 287.953125 746.105469 296.148438 746.105469 C 312.625 746.105469 329.105469 746.105469 345.582031 746.105469 C 353.777344 746.105469 360.460938 739.417969 360.460938 731.222656 L 360.460938 596.976562 Z M 152.421875 404.804688 C 168.898438 404.804688 185.375 404.804688 201.855469 404.804688 C 210.050781 404.804688 216.734375 411.488281 216.734375 419.683594 C 216.734375 523.53125 216.734375 627.375 216.734375 731.222656 C 216.734375 739.417969 210.050781 746.105469 201.855469 746.105469 C 185.375 746.105469 168.898438 746.105469 152.421875 746.105469 C 144.226562 746.105469 137.539062 739.417969 137.539062 731.222656 C 137.539062 627.375 137.539062 523.53125 137.539062 419.683594 C 137.539062 411.488281 144.226562 404.804688 152.421875 404.804688 Z M 14.882812 474.304688 C 31.359375 474.304688 47.835938 474.304688 64.316406 474.304688 C 72.511719 474.304688 79.195312 480.988281 79.195312 489.183594 C 79.195312 569.863281 79.195312 650.542969 79.195312 731.222656 C 79.195312 739.417969 72.511719 746.105469 64.316406 746.105469 C 47.835938 746.105469 31.359375 746.105469 14.882812 746.105469 C 6.6875 746.105469 0 739.417969 0 731.222656 C 0 650.542969 0 569.863281 0 489.183594 C 0 480.988281 6.6875 474.304688 14.882812 474.304688 Z M 243.625 292.121094 L 176.265625 175.582031 L 310.886719 175.582031 C 307.226562 223.96875 281.441406 266.175781 243.625 292.121094 Z M 310.882812 151.773438 L 167.574219 151.773438 L 167.574219 8.457031 C 244.054688 14.238281 305.101562 75.289062 310.882812 151.773438 Z M 454.632812 347.285156 C 427.101562 347.285156 402.175781 358.445312 384.132812 376.488281 C 366.089844 394.527344 354.929688 419.457031 354.929688 446.988281 C 354.929688 472.363281 364.410156 495.519531 380.015625 513.117188 C 389.699219 481.085938 419.449219 457.75 454.636719 457.75 C 489.832031 457.75 519.574219 481.082031 529.25 513.121094 C 544.859375 495.523438 554.335938 472.363281 554.335938 446.988281 C 554.335938 419.457031 543.179688 394.53125 525.136719 376.488281 C 507.09375 358.445312 482.167969 347.285156 454.632812 347.285156 Z M 454.632812 373.050781 C 432.871094 373.050781 415.226562 390.691406 415.226562 412.457031 C 415.226562 434.21875 432.871094 451.863281 454.632812 451.863281 C 476.398438 451.863281 494.039062 434.21875 494.039062 412.457031 C 494.039062 390.691406 476.398438 373.050781 454.632812 373.050781 Z M 367.300781 359.652344 C 344.945312 382.003906 331.121094 412.882812 331.121094 446.988281 C 331.121094 481.09375 344.945312 511.972656 367.300781 534.324219 C 389.648438 556.675781 420.527344 570.5 454.632812 570.5 C 488.738281 570.5 519.617188 556.671875 541.96875 534.324219 C 564.320312 511.972656 578.144531 481.09375 578.144531 446.988281 C 578.144531 412.882812 564.320312 382.003906 541.96875 359.652344 C 519.617188 337.300781 488.738281 323.476562 454.632812 323.476562 C 420.527344 323.476562 389.648438 337.300781 367.300781 359.652344 Z M 367.300781 359.652344 " fill-opacity="1" fill-rule="evenodd"/></g></svg>