<svg xmlns="http://www.w3.org/2000/svg" xmlns:xlink="http://www.w3.org/1999/xlink" width="1000" zoomAndPan="magnify" viewBox="0 0 750 749.999995" height="1000" preserveAspectRatio="xMidYMid meet" version="1.0"><path fill="#ffffff" d="M 547.140625 372.996094 C 575.472656 354.855469 592.546875 363.324219 603.695312 374.121094 C 630 359.292969 644.828125 369.367188 652.242188 374.039062 C 653.589844 374.484375 657.628906 377.765625 663.390625 375.128906 C 684.613281 365.441406 703.433594 376.476562 707.71875 390.777344 L 746.394531 519.488281 C 749.226562 528.929688 750 537.488281 749.320312 547.328125 L 746.777344 584.582031 C 745.960938 596.515625 738.019531 606.15625 726.472656 609.257812 L 583.1875 647.652344 C 573.585938 650.214844 564.074219 647.757812 556.929688 640.8125 L 495.597656 581.269531 C 487.796875 573.691406 481.8125 566.558594 475.722656 557.550781 L 415.980469 469.292969 C 385.070312 428.652344 432.539062 395.859375 461.328125 430.210938 L 517.121094 495.257812 L 441.6875 265.472656 C 428.710938 229.046875 472.6875 213.15625 486.554688 248.113281 L 534.878906 369.953125 C 537.511719 376.59375 544.011719 375 547.140625 372.996094 Z M 244.355469 517.589844 L 381.230469 517.589844 C 383.082031 517.589844 384.59375 519.277344 384.59375 521.328125 L 384.59375 546.414062 C 384.59375 548.464844 383.070312 550.148438 381.230469 550.148438 L 244.355469 550.148438 C 242.515625 550.148438 241.003906 548.476562 241.003906 546.414062 L 241.003906 521.328125 C 241.003906 519.265625 242.503906 517.589844 244.355469 517.589844 Z M 244.355469 582.777344 L 335.847656 582.777344 C 337.699219 582.777344 339.207031 584.476562 339.207031 586.527344 L 339.207031 611.613281 C 339.207031 613.652344 337.6875 615.347656 335.847656 615.347656 L 244.355469 615.347656 C 242.527344 615.347656 241.003906 613.675781 241.003906 611.613281 L 241.003906 586.527344 C 241.003906 584.464844 242.503906 582.777344 244.355469 582.777344 Z M 109.410156 517.589844 L 180.011719 517.589844 C 187.492188 517.589844 193.597656 523.691406 193.597656 531.164062 L 193.597656 601.765625 C 193.597656 609.234375 187.492188 615.347656 180.011719 615.347656 L 109.410156 615.347656 C 101.941406 615.347656 95.835938 609.234375 95.835938 601.765625 L 95.835938 531.164062 C 95.835938 523.691406 101.941406 517.589844 109.410156 517.589844 Z M 244.355469 368.628906 L 381.230469 368.628906 C 383.082031 368.628906 384.59375 370.328125 384.59375 372.363281 L 384.59375 397.464844 C 384.59375 399.5 383.070312 401.199219 381.230469 401.199219 L 244.355469 401.199219 C 242.515625 401.199219 241.003906 399.511719 241.003906 397.464844 L 241.003906 372.363281 C 241.003906 370.316406 242.503906 368.628906 244.355469 368.628906 Z M 244.355469 433.828125 L 335.847656 433.828125 C 337.699219 433.828125 339.207031 435.527344 339.207031 437.5625 L 339.207031 462.664062 C 339.207031 464.699219 337.6875 466.386719 335.847656 466.386719 L 244.355469 466.386719 C 242.527344 466.386719 241.003906 464.710938 241.003906 462.664062 L 241.003906 437.5625 C 241.003906 435.503906 242.503906 433.828125 244.355469 433.828125 Z M 264.746094 160.007812 L 471.023438 160.007812 C 474.585938 160.007812 477.5 162.417969 477.5 165.371094 L 477.5 189.273438 C 477.5 192.238281 474.585938 194.648438 471.023438 194.648438 L 264.746094 194.648438 C 261.183594 194.648438 258.269531 192.238281 258.269531 189.273438 L 258.269531 165.371094 C 258.269531 162.417969 261.183594 160.007812 264.746094 160.007812 Z M 264.746094 234.351562 L 402.722656 234.351562 C 406.292969 234.351562 409.199219 236.765625 409.199219 239.71875 L 409.199219 263.632812 C 409.199219 266.582031 406.292969 268.996094 402.722656 268.996094 L 264.746094 268.996094 C 261.183594 268.996094 258.269531 266.582031 258.269531 263.632812 L 258.269531 239.71875 C 258.269531 236.765625 261.183594 234.351562 264.746094 234.351562 Z M 109.410156 368.628906 L 180.011719 368.628906 C 187.492188 368.628906 193.597656 374.742188 193.597656 382.214844 L 193.597656 452.8125 C 193.597656 460.285156 187.492188 466.386719 180.011719 466.386719 L 109.410156 466.386719 C 101.941406 466.386719 95.835938 460.285156 95.835938 452.8125 L 95.835938 382.214844 C 95.835938 374.742188 101.941406 368.628906 109.410156 368.628906 Z M 110.359375 191.640625 L 138.421875 224.164062 L 203.890625 157.300781 C 206.890625 154.246094 211.925781 154.445312 214.886719 157.535156 L 230.933594 174.261719 C 233.894531 177.339844 233.707031 182.234375 230.699219 185.257812 L 151.070312 265.097656 C 141.210938 274.558594 130.84375 273.738281 122.726562 264.335938 L 81.058594 216.972656 C 78.234375 213.765625 78.609375 208.796875 81.855469 206 L 99.375 190.832031 C 101.003906 189.425781 102.898438 188.804688 105.042969 188.957031 C 107.175781 189.109375 108.964844 190.011719 110.359375 191.640625 Z M 35.230469 0.222656 L 583.84375 0.222656 C 603.414062 0.222656 619.074219 16.210938 619.074219 35.453125 L 619.074219 330.285156 C 619.074219 334.652344 613.910156 337.324219 609.867188 335.507812 C 601.378906 331.714844 593.15625 331.457031 582.753906 332.078125 C 577.519531 332.390625 573.421875 332.824219 573.421875 326.042969 L 573.421875 90.566406 C 573.421875 86.328125 569.824219 82.742188 565.914062 82.742188 L 53.488281 82.742188 C 49.25 82.742188 45.664062 86.328125 45.664062 90.566406 C 45.664062 292.585938 45.664062 494.601562 45.664062 696.605469 C 45.664062 700.519531 49.25 704.113281 53.488281 704.113281 L 565.914062 704.113281 C 569.824219 704.113281 573.421875 700.53125 573.421875 696.605469 L 573.421875 686.558594 C 573.421875 684.015625 575.632812 680.304688 579.875 680.070312 C 595.03125 679.226562 597.710938 678.21875 612.234375 674.773438 C 618.523438 673.289062 619.074219 677.304688 619.074219 679.835938 L 619.074219 714.546875 C 619.074219 734.117188 603.414062 749.777344 583.84375 749.777344 L 35.230469 749.777344 C 15.988281 749.777344 0 734.117188 0 714.546875 C 0 488.183594 0 261.816406 0 35.453125 C 0 16.210938 15.988281 0.222656 35.230469 0.222656 Z M 244.953125 29.574219 L 552.210938 29.574219 C 559.0625 29.574219 564.929688 35.125 564.929688 41.976562 C 564.929688 49.15625 559.0625 54.695312 552.210938 54.695312 L 244.953125 54.695312 C 238.101562 54.695312 232.550781 49.15625 232.550781 41.976562 C 232.550781 35.125 238.101562 29.574219 244.953125 29.574219 Z M 122.304688 29.257812 C 129.484375 29.257812 135.035156 34.796875 135.035156 41.976562 C 135.035156 48.828125 129.484375 54.367188 122.304688 54.367188 C 115.453125 54.367188 109.914062 48.828125 109.914062 41.976562 C 109.914062 34.796875 115.453125 29.257812 122.304688 29.257812 Z M 87.734375 29.257812 C 94.585938 29.257812 100.136719 34.796875 100.136719 41.976562 C 100.136719 48.828125 94.585938 54.367188 87.734375 54.367188 C 80.566406 54.367188 75.015625 48.828125 75.015625 41.976562 C 75.015625 34.796875 80.566406 29.257812 87.734375 29.257812 Z M 52.84375 29.257812 C 59.683594 29.257812 65.234375 34.796875 65.234375 41.976562 C 65.234375 48.828125 59.683594 54.367188 52.84375 54.367188 C 45.664062 54.367188 40.113281 48.828125 40.113281 41.976562 C 40.113281 34.796875 45.664062 29.257812 52.84375 29.257812 Z M 52.84375 29.257812 " fill-opacity="1" fill-rule="evenodd"/></svg>